<svg width="16" height="15" viewBox="0 0 16 15" fill="none" xmlns="http://www.w3.org/2000/svg">
<path d="M8 0.0117188C12.1484 0.0117188 15.4883 3.35156 15.4883 7.5C15.4883 11.6484 12.1484 14.9883 8 14.9883C3.85156 14.9883 0.511719 11.6484 0.511719 7.5C0.511719 3.35156 3.85156 0.0117188 8 0.0117188ZM8 8.23828C8.42188 8.23828 8.73828 7.92188 8.73828 7.5V4.51172C8.73828 4.08984 8.42188 3.73828 8 3.73828C7.57812 3.73828 7.26172 4.08984 7.26172 4.51172V7.5C7.26172 7.92188 7.57812 8.23828 8 8.23828ZM8.73828 11.2617V9.75H7.26172V11.2617H8.73828Z" fill="#333333"/>
</svg>
