<svg width="42" height="40" viewBox="0 0 42 40" fill="none" xmlns="http://www.w3.org/2000/svg">
<path fill-rule="evenodd" clip-rule="evenodd" d="M19.6705 19.8514C18.6911 19.4297 17.6816 19.0636 16.644 18.7617C13.1624 20.3417 10.0755 22.6281 7.56677 25.4348C8.04781 26.5738 8.68848 27.6613 9.48878 28.6654C12.0752 24.9446 15.5762 21.9002 19.6705 19.8514Z" fill="#A5C757"/>
<path d="M6.62149 17.762C6.28929 19.768 6.39931 21.834 6.95153 23.8036C7.37865 25.3279 8.07325 26.7965 9.03533 28.1345C10.3598 26.257 11.9108 24.5486 13.6516 23.0521C15.2522 21.6755 17.0103 20.4788 18.8956 19.4897C17.5862 18.9738 16.2229 18.5584 14.8186 18.2544C12.9851 17.8562 11.0781 17.6464 9.11946 17.6464C8.59743 17.6464 8.09913 17.6593 7.6224 17.6871C7.29021 17.7064 6.95585 17.732 6.61933 17.762H6.62149ZM5.64647 24.1632C4.99285 21.834 4.90657 19.3784 5.38329 17.0149L5.48037 16.5332L5.97219 16.4775C6.48775 16.4197 7.01193 16.3747 7.54906 16.3448C8.08835 16.3148 8.61253 16.2998 9.11946 16.2998C11.1731 16.2998 13.1749 16.5203 15.1055 16.9399C17.0879 17.3702 18.9927 18.0104 20.7961 18.8367L22.1292 19.4469L20.7961 20.057C18.516 21.1018 16.4106 22.4569 14.536 24.069C12.778 25.5805 11.2205 27.3189 9.91113 29.2371L10.1333 29.4811L9.13672 30.391L9.08063 30.3311C8.85844 30.0891 8.64705 29.8408 8.44212 29.5882L8.23072 29.3313L8.23503 29.3249C7.02272 27.7492 6.15986 25.9937 5.64647 24.1611V24.1632ZM9.38263 30.6543L9.16907 30.4295L10.1657 29.5197L10.3598 29.7231L10.5583 29.9222C11.6174 30.9712 12.7974 31.819 14.0528 32.4612C15.3557 33.1292 16.7406 33.5809 18.1557 33.8185L17.9335 35.1459C16.3804 34.8868 14.8596 34.3901 13.4316 33.6558C12.0489 32.9472 10.7524 32.0202 9.59834 30.8748L9.38047 30.6543H9.38263Z" fill="#0A495C"/>
<path d="M31.4286 9.20711C34.4421 12.1979 35.9499 16.12 35.9499 20.0399C35.9499 23.9598 34.4421 27.8819 31.4286 30.8727C28.415 33.8635 24.4632 35.36 20.5134 35.36C16.5637 35.36 12.6119 33.8635 9.59833 30.8727C6.58481 27.8819 5.07697 23.9598 5.07697 20.0399C5.07697 16.12 6.58481 12.1979 9.59833 9.20711C12.6119 6.21632 16.5637 4.71985 20.5134 4.71985C24.4632 4.71985 28.415 6.21632 31.4286 9.20711ZM34.5909 20.0399C34.5909 16.4647 33.2168 12.8894 30.4686 10.1598C27.7204 7.43233 24.118 6.0686 20.5134 6.0686C16.9089 6.0686 13.3064 7.43233 10.5583 10.1598C7.81006 12.8873 6.43596 16.4625 6.43596 20.0399C6.43596 23.6173 7.81006 27.1926 10.5583 29.92C13.3064 32.6475 16.9089 34.0112 20.5134 34.0112C24.118 34.0112 27.7204 32.6475 30.4686 29.92C33.2168 27.1926 34.5909 23.6173 34.5909 20.0399Z" fill="#0A495C"/>
<path d="M35.6436 17.0127C36.144 19.4876 36.0254 22.0587 35.2898 24.4801C34.578 26.8222 33.2902 29.0251 31.4307 30.8727C28.4172 33.8635 24.4653 35.36 20.5156 35.36C16.5659 35.36 12.614 33.8635 9.60045 30.8727C9.44083 30.7143 9.25963 30.5237 9.05901 30.3032C8.8735 30.0999 8.70308 29.9029 8.54561 29.7102L8.23499 29.3313L8.50463 28.9202C11.0371 25.0538 14.5144 21.8532 18.613 19.6417C22.5692 17.5094 27.0992 16.2977 31.9096 16.2977C32.423 16.2977 32.9515 16.3127 33.4951 16.3448C34.0279 16.3747 34.5478 16.4197 35.0568 16.4754L35.5487 16.531L35.6457 17.0127H35.6436ZM33.9891 24.0969C34.6146 22.0373 34.7549 19.8665 34.4054 17.762C34.0754 17.7299 33.7453 17.7064 33.4174 17.6871C32.9364 17.6593 32.4338 17.6464 31.9074 17.6464C27.3235 17.6464 23.0157 18.7982 19.258 20.8235C15.5045 22.8466 12.2969 25.7453 9.91324 29.2414L10.0599 29.4062C10.1937 29.5539 10.3619 29.7273 10.5582 29.9222C13.3064 32.6496 16.9088 34.0134 20.5134 34.0134C24.118 34.0134 27.7183 32.6496 30.4686 29.9222C32.1684 28.2352 33.3419 26.227 33.9891 24.0969Z" fill="#0A495C"/>
<path d="M11.434 26.5374L15.2953 33.1741L14.124 33.8421L10.2627 27.2054L11.434 26.5374Z" fill="#0A495C"/>
<path d="M13.4898 24.3109L19.2623 34.2338L18.091 34.9082L12.3163 24.9853L13.4898 24.3109Z" fill="#0A495C"/>
<path d="M15.7138 22.382L22.6317 34.2724L21.4583 34.9404L14.5425 23.05L15.7138 22.382Z" fill="#0A495C"/>
<path d="M18.0974 20.7228L25.6172 33.6515L24.4459 34.3195L16.924 21.3908L18.0974 20.7228Z" fill="#0A495C"/>
<path d="M20.6346 19.3269L28.2946 32.4954L27.1233 33.1676L19.4633 20.0013L20.6346 19.3269Z" fill="#0A495C"/>
<path d="M23.3287 18.2051L30.6824 30.8426L29.5089 31.517L22.1574 18.8795L23.3287 18.2051Z" fill="#0A495C"/>
<path d="M26.1889 17.3638L32.7681 28.6719L31.5947 29.3463L25.0154 18.0382L26.1889 17.3638Z" fill="#0A495C"/>
<path d="M29.2261 16.8286L34.4874 25.8738L33.316 26.5482L28.0526 17.5008L29.2261 16.8286Z" fill="#0A495C"/>
<path d="M32.4618 16.6381L35.6544 22.1273L34.4831 22.7952L31.2883 17.306L32.4618 16.6381Z" fill="#0A495C"/>
<path d="M40.7316 24.6462V24.6419C40.6108 24.5241 40.4792 24.4171 40.339 24.3229C41.4434 19.3818 40.5935 14.4171 38.2681 10.2681C35.8715 6.00349 31.911 2.60165 26.8978 0.983149L26.8504 0.968162C21.5546 -0.723124 16.069 -0.127963 11.4786 2.20344C6.90116 4.53057 3.21893 8.58752 1.504 13.8198L1.48675 13.8648C-0.219549 19.1185 0.377978 24.5627 2.73142 29.1206C5.0827 33.6764 9.18557 37.3415 14.4813 39.0371C16.1639 39.5766 17.9047 39.8913 19.6563 39.9769C21.4079 40.0647 23.1681 39.9256 24.8939 39.5573C25.2606 39.4803 25.4935 39.1227 25.4159 38.7609C25.3382 38.397 24.978 38.1636 24.6134 38.2428C22.9977 38.5854 21.3518 38.7181 19.7189 38.6368C18.0838 38.5554 16.4638 38.2621 14.8934 37.759C9.95136 36.179 6.12675 32.7601 3.9351 28.5126C1.74345 24.2651 1.18259 19.187 2.7724 14.2865L2.77672 14.2801C4.36868 9.3775 7.81363 5.58174 12.0934 3.40447C16.3732 1.22935 21.4899 0.674863 26.4297 2.25268H26.4362C31.1323 3.75986 34.8447 6.9369 37.086 10.9296C39.2367 14.7575 40.0305 19.3347 39.0468 23.9033C39.0037 23.9033 38.9584 23.899 38.9131 23.899C38.2012 23.899 37.5563 24.1837 37.0903 24.6483V24.6526C36.6244 25.115 36.3353 25.753 36.3353 26.4595C36.3353 27.166 36.6244 27.8061 37.0903 28.2685C37.5563 28.731 38.2012 29.0178 38.9131 29.0178C39.625 29.0178 40.2678 28.7331 40.7337 28.2685C41.1997 27.8061 41.4909 27.166 41.4909 26.4595C41.4909 25.753 41.2018 25.115 40.7337 24.6526L40.7316 24.6462ZM39.7716 27.3094C39.5516 27.5278 39.2475 27.6648 38.9109 27.6648C38.5744 27.6648 38.2681 27.5299 38.0481 27.3094C37.8281 27.091 37.69 26.787 37.69 26.4531C37.69 26.1191 37.8237 25.8151 38.0459 25.5967C38.266 25.3784 38.5723 25.2413 38.9088 25.2413C39.2453 25.2413 39.5516 25.3762 39.7716 25.5967C39.9917 25.8172 40.1297 26.117 40.1297 26.4531C40.1297 26.7892 39.9938 27.091 39.7716 27.3094Z" fill="#0A495C"/>
<path d="M29.906 36.3512C30.2318 36.1671 30.6438 36.2805 30.8293 36.6038C31.0148 36.9271 30.9005 37.336 30.5748 37.5201C30.0678 37.8048 29.5436 38.0703 29.0065 38.3122C28.4651 38.5584 27.9215 38.7768 27.3779 38.9673C27.0241 39.0915 26.638 38.9074 26.5129 38.5563C26.3877 38.2052 26.5733 37.8219 26.927 37.6978C27.4512 37.5137 27.9581 37.3124 28.4457 37.0919C28.9396 36.8693 29.4272 36.6209 29.9082 36.3512H29.906Z" fill="#A5C757"/>
<path d="M32.5054 34.5764C32.7944 34.343 33.2215 34.3858 33.4567 34.6727C33.6918 34.9596 33.6487 35.3835 33.3596 35.6168L33.0856 35.8331L32.8052 36.0471C32.5075 36.2719 32.0804 36.212 31.8561 35.9165C31.6296 35.6211 31.69 35.1972 31.9877 34.9746L32.2465 34.7776H32.2487L32.5032 34.5764H32.5054Z" fill="#A5C757"/>
</svg>
